<?xml version="1.0" encoding="UTF-8" standalone="no"?>
<!-- Created with Inkscape (http://www.inkscape.org/) -->

<svg
   xmlns:dc="http://purl.org/dc/elements/1.1/"
   xmlns:cc="http://creativecommons.org/ns#"
   xmlns:rdf="http://www.w3.org/1999/02/22-rdf-syntax-ns#"
   xmlns:svg="http://www.w3.org/2000/svg"
   xmlns="http://www.w3.org/2000/svg"
   xmlns:sodipodi="http://sodipodi.sourceforge.net/DTD/sodipodi-0.dtd"
   xmlns:inkscape="http://www.inkscape.org/namespaces/inkscape"
   width="1024"
   height="768"
   id="svg4143"
   version="1.1"
   inkscape:version="0.48.4 r9939"
   sodipodi:docname="New document 15">
  <defs
     id="defs4145" />
  <sodipodi:namedview
     id="base"
     pagecolor="#ffffff"
     bordercolor="#666666"
     borderopacity="1.0"
     inkscape:pageopacity="0.0"
     inkscape:pageshadow="2"
     inkscape:zoom="0.35"
     inkscape:cx="375"
     inkscape:cy="520"
     inkscape:document-units="px"
     inkscape:current-layer="layer1"
     showgrid="false"
     inkscape:window-width="979"
     inkscape:window-height="741"
     inkscape:window-x="452"
     inkscape:window-y="581"
     inkscape:window-maximized="0" />
  <metadata
     id="metadata4148">
    <rdf:RDF>
      <cc:Work
         rdf:about="">
        <dc:format>image/svg+xml</dc:format>
        <dc:type
           rdf:resource="http://purl.org/dc/dcmitype/StillImage" />
        <dc:title></dc:title>
      </cc:Work>
    </rdf:RDF>
  </metadata>
  <g
     inkscape:label="Layer 1"
     inkscape:groupmode="layer"
     id="layer1"
     transform="translate(0,-284.36218)">
    <rect
       style="opacity:0.79734216;fill:#ffffff;fill-opacity:1;stroke:#000000;stroke-opacity:1"
       id="rect4151"
       width="157.14285"
       height="125.71429"
       x="100"
       y="148"
       transform="translate(0,284.36218)"
       class="recordable" />
    <path
       sodipodi:type="arc"
       style="opacity:0.79734216;fill:#ffffff;fill-opacity:1;stroke:#000000;stroke-opacity:1"
       id="path4153"
       sodipodi:cx="538.57141"
       sodipodi:cy="212.28572"
       sodipodi:rx="84.285713"
       sodipodi:ry="84.285713"
       d="m 622.85712,212.28572 a 84.285713,84.285713 0 1 1 -168.57142,0 84.285713,84.285713 0 1 1 168.57142,0 z"
       transform="translate(0,281.50504)"
       class="recordable" />
    <path
       style="fill:#47b850;fill-opacity:1;stroke:#000000;stroke-width:1px;stroke-linecap:butt;stroke-linejoin:miter;stroke-opacity:1"
       d="m 477.14286,629.50503 c -5.71428,0 -11.42857,0 -17.14286,0 -0.95238,0 -2.1837,-0.67344 -2.85714,0 -0.67343,0.67343 0.67344,2.18371 0,2.85714 -1.42857,1.42857 -7.14286,-1.42857 -8.57143,0 -0.67343,0.67344 0.67344,2.18371 0,2.85714 -0.78177,0.78178 -9.8786,-0.77498 -11.42857,0 -1.20468,0.60234 -1.65246,2.25481 -2.85714,2.85715 -2.28572,1.14285 -6.28572,-1.14286 -8.57143,0 -1.20468,0.60234 -1.65247,2.2548 -2.85714,2.85714 -1.70367,0.85184 -4.36742,-1.34687 -5.71429,0 -0.67343,0.67344 0.67344,2.18371 0,2.85714 -1.34687,1.34687 -4.36741,-1.34687 -5.71428,0 -0.67344,0.67344 0.67343,2.18371 0,2.85715 -1.42858,1.42857 -7.14286,-1.42858 -8.57143,0 -0.67344,0.67343 0.67343,2.1837 0,2.85714 -7.61905,0 0.95238,-0.95238 -2.85715,2.85714 -1.34687,1.34687 -4.01061,-0.85183 -5.71428,0 -1.20468,0.60234 -1.65247,2.25481 -2.85714,2.85714 -1.70368,0.85184 -4.36742,-1.34687 -5.71429,0 -0.67344,0.67344 0,1.90477 0,2.85715 -0.95238,0 -2.00531,-0.42592 -2.85714,0 -1.20468,0.60234 -1.65247,2.2548 -2.85715,2.85714 -1.70367,0.85184 -4.36741,-1.34687 -5.71428,0 -0.67344,0.67344 0.67343,2.18371 0,2.85714 -0.67344,0.67344 -2.00531,-0.42591 -2.85714,0 -1.20468,0.60234 -1.65247,2.25481 -2.85715,2.85715 -0.85183,0.42591 -2.0053,-0.42592 -2.85714,0 -0.74386,0.37192 -3.48078,5.09064 -5.71429,2.85714 -0.67343,-0.67344 0.67344,-2.18371 0,-2.85714 -0.67343,-0.67344 -2.1837,0.67343 -2.85714,0 -0.67343,-0.67344 0.67344,-2.18371 0,-2.85715 -0.67343,-0.67343 -2.00531,0.42592 -2.85714,0 -2.40936,-1.20467 -3.30493,-4.50961 -5.71429,-5.71428 -0.85183,-0.42592 -2.1837,0.67343 -2.85714,0 -0.67344,-0.67344 0.67344,-2.18371 0,-2.85715 -0.67344,-0.67343 -2.00531,0.42592 -2.85714,0 -3.42857,-1.71428 -5.14286,-6.85714 -8.57143,-8.57142 -0.85184,-0.42592 -2.00531,0.42591 -2.85714,0 -1.20468,-0.60234 -1.65247,-2.25481 -2.85715,-2.85715 -0.85183,-0.42591 -2.0053,0.42592 -2.85714,0 -1.20468,-0.60234 -1.65247,-2.2548 -2.85714,-2.85714 -0.85184,-0.42592 -2.00531,0.42592 -2.85715,0 -1.20467,-0.60234 -1.65246,-2.2548 -2.85714,-2.85714 -0.85183,-0.42592 -2.00531,0.42591 -2.85714,0 -1.20468,-0.60234 -1.65247,-2.25481 -2.85714,-2.85715 -1.70368,-0.85183 -4.36742,1.34687 -5.71429,0 -0.67344,-0.67343 0.67344,-2.1837 0,-2.85714 -0.67344,-0.67343 -1.90476,0 -2.85714,0 -0.95238,0 -2.00531,-0.42592 -2.85715,0 -1.20467,0.60234 -1.90476,1.90476 -2.85714,2.85714 -0.95238,0.95239 -2.2548,1.65247 -2.85714,2.85715 -0.42592,0.85183 0.42592,2.0053 0,2.85714 -5.94537,11.89074 0.19724,-3.05439 -5.71429,2.85714 -0.67343,0.67344 0.42592,2.00531 0,2.85715 -0.60234,1.20467 -2.2548,1.65246 -2.85714,2.85714 -0.42592,0.85183 0.67344,2.18371 0,2.85714 -0.67344,0.67344 -2.18371,-0.67343 -2.85714,0 -0.67344,0.67344 0.42591,2.00531 0,2.85714 -2.84445,5.68889 -2.86984,0.0254 -5.71429,5.71429 -0.85183,1.70367 1.34687,4.36742 0,5.71429 -0.67343,0.67343 -2.18371,-0.67344 -2.85714,0 -1.34687,1.34687 1.34687,4.36741 0,5.71428 -0.67344,0.67344 -2.18371,-0.67343 -2.85714,0 -0.11498,0.11498 0,10.37933 0,11.42857 0,0.69294 -0.0919,8.47955 0,8.57143 0.67343,0.67344 2.1837,-0.67343 2.85714,0 1.34687,1.34687 -1.34687,4.36742 0,5.71429 0.67343,0.67343 2.18371,-0.67344 2.85714,0 1.34687,1.34687 -0.85183,4.01061 0,5.71428 1.20468,2.40936 4.50961,3.30493 5.71429,5.71429 0.42591,0.85183 -0.67344,2.18371 0,2.85714 0.67343,0.67344 2.1837,-0.67343 2.85714,0 1.34687,1.34687 -0.85184,4.01062 0,5.71429 5.94537,11.89074 -0.19724,-3.05439 5.71429,2.85714 0.67343,0.67344 -0.42592,2.00531 0,2.85714 0.60233,1.20468 2.2548,1.65247 2.85714,2.85715 0.42592,0.85183 -0.67344,2.1837 0,2.85714 0.67343,0.67343 2.18371,-0.67344 2.85714,0 0.67344,0.67343 -0.42592,2.00531 0,2.85714 0.60234,1.20468 2.25481,1.65247 2.85714,2.85714 0.42592,0.85184 -0.67343,2.18371 0,2.85715 0.67344,0.67343 2.00531,-0.42592 2.85715,0 1.20467,0.60234 1.65246,2.2548 2.85714,2.85714 0.85184,0.42592 2.18371,-0.67344 2.85714,0 0.67344,0.67344 -0.67343,2.18371 0,2.85714 0.67344,0.67344 2.00531,-0.42591 2.85715,0 1.20467,0.60234 1.65246,2.25481 2.85714,2.85715 1.70367,0.85183 4.36741,-1.34687 5.71428,0 0.67344,0.67343 -0.67343,2.1837 0,2.85714 0.67344,0.67343 2.00531,-0.42592 2.85715,0 1.20467,0.60234 1.65246,2.2548 2.85714,2.85714 1.13283,0.56642 7.98732,-0.5841 8.57143,0 0.67343,0.67344 -0.67344,2.18374 0,2.85714 1.34687,1.3469 4.01061,-0.8518 5.71428,0 1.20468,0.6023 1.65247,2.2548 2.85715,2.8572 1.54996,0.7749 10.64679,-0.7818 11.42857,0 0.67343,0.6734 -0.67344,2.1837 0,2.8571 0.11497,0.115 10.37932,0 11.42857,0 1.98726,0 13.25248,0.5166 14.28571,0 1.20468,-0.6023 1.65247,-2.2548 2.85715,-2.8571 0.85183,-0.426 2.1837,0.6734 2.85714,0 0.67344,-0.6735 -0.67344,-2.1838 0,-2.8572 1.34687,-1.34687 4.36742,1.3469 5.71429,0 0.67343,-0.6734 -0.67344,-2.1837 0,-2.85714 4.27722,-4.27723 1.43705,4.27724 5.71428,0 0.67344,-0.67343 -0.67343,-2.18371 0,-2.85714 1.42857,-1.42857 7.14286,1.42857 8.57143,0 0.67344,-0.67344 -0.67344,-2.18371 0,-2.85714 1.34687,-1.34687 4.01061,0.85183 5.71429,0 1.20467,-0.60234 1.65246,-2.25481 2.85714,-2.85715 1.70367,-0.85183 4.36741,1.34687 5.71428,0 3.80953,-3.80952 -4.7619,-2.85714 2.85715,-2.85714 -7.59688,-35.40297 12.62532,-4.05389 17.14285,-8.57143 0.67344,-0.67343 -0.67343,-2.18371 0,-2.85714 1.86408,-1.86408 3.85021,1.86408 5.71429,0 0.67344,-0.67344 -0.67344,-2.18371 0,-2.85714 1.34687,-1.34687 4.36742,1.34687 5.71429,0 0.67343,-0.67344 -0.67344,-2.18371 0,-2.85715 1.42857,-1.42857 7.14285,1.42857 8.57142,0 0.67344,-0.67343 -0.67343,-2.1837 0,-2.85714 1.34687,-1.34687 4.36742,1.34687 5.71429,0 0.67344,-0.67344 -0.67344,-2.18371 0,-2.85714 1.34687,-1.34687 4.01061,0.85183 5.71429,0 1.20467,-0.60234 1.65246,-2.25481 2.85714,-2.85715 0.85183,-0.42591 2.00531,0.42592 2.85714,0 1.20468,-0.60233 1.65247,-2.2548 2.85714,-2.85714 0.85184,-0.42592 2.00531,0.42592 2.85715,0 1.20467,-0.60234 1.65246,-2.2548 2.85714,-2.85714 0.85184,-0.42592 2.18371,0.67343 2.85714,0 0.67344,-0.67344 -0.67343,-2.18371 0,-2.85714 4.75248,-4.75248 0.96181,4.75247 5.71429,0 0.67343,-0.67344 -0.67344,-2.18371 0,-2.85715 0.67343,-0.67343 2.18371,0.67344 2.85714,0 0.67344,-0.67343 -0.42592,-2.0053 0,-2.85714 0.60234,-1.20468 2.25481,-1.65247 2.85714,-2.85714 0.42592,-0.85184 -0.67343,-2.18371 0,-2.85715 0.67344,-0.67343 2.18371,0.67344 2.85715,0 1.00291,-1.00291 -0.98676,-12.31219 0,-14.28571 0.60234,-1.20468 2.2548,-1.65247 2.85714,-2.85714 0.36936,-0.73872 0,-15.11771 0,-17.14286 0,-0.95238 0.67344,-2.18371 0,-2.85714 -0.67344,-0.67344 -2.18371,0.67343 -2.85714,0 -1.34687,-1.34687 1.34687,-4.36742 0,-5.71429 -0.67344,-0.67343 -2.18371,0.67344 -2.85715,0 -1.42857,-1.42857 1.42858,-7.14286 0,-8.57143 -0.67343,-0.67343 -2.1837,0.67344 -2.85714,0 -0.67343,-0.67343 0.67344,-2.1837 0,-2.85714 -1.34687,-1.34687 -4.36741,1.34687 -5.71428,0 -0.67344,-0.67344 0.67343,-2.18371 0,-2.85714 -0.67344,-0.67344 -2.04049,0.48999 -2.85715,0 -4.0833,-2.44998 -7.61905,-5.71429 -11.42857,-8.57143 z"
       id="path4669"
       inkscape:connector-curvature="0"
       class="recordable" />
  </g>
</svg>
